<svg id="svg" version="1.1" xmlns="http://www.w3.org/2000/svg" xmlns:xlink="http://www.w3.org/1999/xlink" width="400" height="272.2570106180234" viewBox="0, 0, 400,272.2570106180234"><g id="svgg"><path id="path0" d="M357.167 128.093 C 353.552 128.436,350.117 129.177,347.028 130.279 C 342.868 131.763,340.971 132.226,335.833 133.012 C 335.146 133.117,334.358 133.265,334.083 133.340 C 333.808 133.415,333.258 133.527,332.861 133.589 C 330.989 133.879,328.471 134.861,324.083 137.012 C 320.224 138.904,318.053 139.693,314.500 140.492 C 311.078 141.261,307.013 143.022,304.018 145.033 C 300.001 147.730,298.184 148.683,293.823 150.381 C 289.525 152.054,284.454 155.033,282.833 156.835 C 282.787 156.886,282.375 157.225,281.917 157.589 C 281.458 157.953,281.046 158.294,281.000 158.347 C 280.954 158.400,280.317 158.844,279.583 159.333 C 278.850 159.823,278.212 160.271,278.167 160.330 C 278.072 160.451,277.033 161.031,273.083 163.169 C 271.243 164.165,270.028 165.004,268.863 166.083 L 267.872 167.001 267.611 166.451 C 267.467 166.149,266.971 165.388,266.508 164.761 C 265.563 163.480,265.506 163.150,266.042 162.033 C 267.427 159.141,265.561 154.534,262.370 152.965 L 261.254 152.417 258.335 152.417 L 255.417 152.417 253.917 151.589 L 252.417 150.761 250.250 150.757 C 247.862 150.753,247.793 150.769,244.250 152.167 C 240.449 153.667,237.373 155.283,234.325 157.379 C 232.468 158.656,230.357 159.740,228.250 160.499 C 227.425 160.796,226.467 161.155,226.121 161.297 C 225.378 161.601,224.401 162.615,223.748 163.761 C 222.667 165.657,222.305 165.845,219.487 165.984 L 217.391 166.087 215.404 167.057 C 211.875 168.780,206.626 171.971,204.250 173.838 C 202.599 175.135,200.185 176.650,198.417 177.501 C 196.394 178.474,194.162 179.500,194.068 179.500 C 194.031 179.500,193.999 178.694,193.997 177.708 C 193.974 165.413,186.366 158.672,176.083 161.837 C 169.730 163.793,166.071 166.451,161.747 172.250 C 159.421 175.368,158.064 176.951,155.170 179.917 C 152.713 182.435,152.106 183.162,150.599 185.386 L 149.491 187.022 148.757 185.440 L 148.023 183.859 147.220 184.117 C 144.342 185.042,142.369 184.998,137.750 183.906 C 135.848 183.456,132.391 182.260,130.078 181.250 C 126.528 179.701,123.180 178.975,118.196 178.672 C 113.481 178.386,111.485 178.870,109.473 180.789 L 108.520 181.699 107.961 181.273 C 104.783 178.849,100.666 178.889,98.046 181.369 C 96.326 182.997,95.677 183.263,93.583 183.198 C 89.240 183.065,89.129 183.071,88.333 183.485 C 86.545 184.415,84.759 186.401,83.731 188.602 L 83.178 189.787 82.080 189.875 C 76.624 190.313,73.655 198.069,76.920 203.354 C 78.733 206.288,82.760 208.638,86.751 209.090 C 89.788 209.433,90.551 209.526,91.667 209.688 C 93.227 209.914,96.206 210.425,98.500 210.860 C 101.330 211.396,106.595 211.464,109.583 211.004 C 114.660 210.221,115.341 210.173,120.719 210.212 C 124.267 210.238,126.234 210.186,126.917 210.048 C 127.467 209.937,129.154 209.764,130.667 209.663 C 134.659 209.397,136.223 208.925,138.058 207.430 L 138.961 206.694 139.522 207.278 C 142.814 210.700,146.348 211.197,150.251 208.787 L 151.417 208.066 152.417 209.092 C 155.399 212.152,160.412 212.423,163.658 209.700 L 164.232 209.218 165.103 210.159 C 166.355 211.511,167.386 211.969,169.623 212.167 C 170.610 212.254,172.283 212.402,173.342 212.496 C 178.931 212.991,183.191 212.582,186.460 211.234 C 188.074 210.569,188.334 210.554,190.272 211.015 C 193.399 211.757,195.502 211.346,197.867 209.528 L 198.985 208.669 200.072 209.351 C 202.167 210.664,202.187 210.667,210.926 210.667 C 219.401 210.667,219.474 210.659,220.947 209.646 C 221.960 208.949,222.721 208.993,224.005 209.823 C 226.909 211.700,230.014 211.611,233.095 209.561 C 234.711 208.486,234.766 208.482,235.782 209.361 C 238.668 211.862,241.824 211.903,245.763 209.492 C 247.205 208.609,247.865 208.677,249.480 209.872 C 250.345 210.512,252.952 211.000,255.500 210.999 C 258.503 210.997,264.613 210.451,266.667 210.000 C 269.474 209.384,270.395 209.301,273.148 209.411 C 277.806 209.597,277.688 209.602,278.500 209.211 C 278.912 209.012,279.616 208.587,280.062 208.264 C 281.328 207.352,281.789 207.255,282.854 207.676 C 286.058 208.942,287.619 209.091,293.417 208.682 C 302.991 208.005,302.162 208.136,304.222 206.979 C 304.833 206.636,304.923 206.629,306.305 206.836 C 307.100 206.955,308.200 207.117,308.750 207.197 C 311.829 207.645,318.372 207.535,321.583 206.981 C 326.096 206.202,326.593 206.028,327.892 204.765 L 328.687 203.992 329.719 204.591 C 333.669 206.885,336.558 206.793,340.083 204.264 C 340.942 203.648,341.295 203.556,341.794 203.819 C 345.689 205.874,349.036 205.464,352.333 202.528 C 352.745 202.161,353.157 201.917,353.249 201.986 C 355.755 203.870,360.530 203.108,363.306 200.380 C 364.507 199.201,365.763 198.847,367.660 199.155 C 370.623 199.637,372.595 198.769,374.503 196.146 C 375.531 194.733,375.986 194.426,377.417 194.177 C 379.921 193.740,382.120 192.845,383.833 191.563 C 385.055 190.650,389.347 186.435,390.093 185.417 C 390.362 185.050,390.624 184.713,390.677 184.667 C 392.584 183.001,394.323 177.928,393.523 176.364 C 393.033 175.407,393.109 175.217,394.208 174.640 C 398.484 172.394,399.899 167.366,397.473 163.037 C 397.078 162.332,397.086 162.232,397.574 161.744 C 398.362 160.956,399.007 159.869,399.734 158.105 C 400.794 155.532,399.507 151.833,396.634 149.195 C 396.035 148.645,395.881 148.406,395.988 148.195 C 396.521 147.136,396.583 146.847,396.574 145.433 C 396.563 143.610,395.411 141.119,393.496 138.779 C 393.408 138.671,393.005 138.171,392.601 137.667 C 389.125 133.331,384.215 130.667,379.697 130.667 C 378.380 130.667,378.180 130.596,377.035 129.722 C 374.019 127.419,368.979 127.434,366.500 129.753 L 366.083 130.142 365.513 129.576 C 363.928 128.003,361.908 127.644,357.167 128.093 " stroke="none" fill="#fbfbfb" fill-rule="evenodd"></path><path id="path1" d="M141.417 0.253 C 139.580 0.594,137.406 1.445,135.632 2.517 L 135.014 2.891 133.799 2.150 C 132.641 1.445,131.642 0.934,130.617 0.521 C 129.818 0.199,127.914 0.287,127.118 0.682 C 126.463 1.007,124.000 3.369,124.000 3.672 C 124.000 3.748,123.904 3.909,123.786 4.030 C 123.669 4.151,123.405 4.488,123.201 4.779 L 122.829 5.308 121.609 4.112 C 119.200 1.752,117.086 1.206,113.333 1.971 C 112.013 2.240,111.087 2.416,109.667 2.665 C 108.172 2.928,106.690 3.251,104.667 3.754 C 104.071 3.902,103.116 4.126,102.546 4.252 C 100.068 4.799,97.682 6.931,97.668 8.612 C 97.666 8.909,96.836 9.833,96.572 9.833 C 96.445 9.833,95.572 9.440,94.633 8.958 L 92.926 8.083 91.088 8.089 C 88.086 8.097,86.081 9.928,85.344 13.333 C 84.950 15.151,84.771 15.580,84.385 15.635 C 84.074 15.680,83.276 15.311,83.000 14.996 C 81.643 13.445,77.734 13.024,75.583 14.197 C 74.533 14.771,73.404 16.569,73.093 18.167 C 73.030 18.487,72.915 18.938,72.837 19.167 C 72.759 19.396,72.600 19.932,72.483 20.358 C 72.106 21.733,72.115 21.729,70.231 21.234 C 68.207 20.702,65.383 20.518,64.208 20.842 C 63.317 21.088,62.856 21.326,61.223 22.381 C 60.596 22.786,59.521 23.446,58.833 23.847 C 54.972 26.098,53.127 27.667,51.641 29.964 C 49.836 32.754,47.313 34.886,43.650 36.717 C 41.667 37.708,41.502 38.061,41.495 41.327 C 41.488 44.428,41.476 44.442,38.750 44.750 C 35.437 45.123,33.852 45.966,31.979 48.351 C 31.395 49.095,30.743 49.902,30.531 50.144 C 30.318 50.386,29.795 51.071,29.367 51.667 C 28.940 52.262,28.481 52.862,28.348 53.000 C 27.702 53.665,24.330 58.353,24.098 58.908 C 23.788 59.649,23.749 61.431,24.023 62.343 C 24.286 63.224,23.876 63.870,22.537 64.683 C 21.568 65.272,20.639 65.967,19.441 67.000 C 19.018 67.365,17.378 69.199,16.667 70.103 C 15.190 71.979,13.524 75.581,12.745 78.583 C 11.301 84.144,11.328 84.756,13.116 86.974 C 14.188 88.303,14.169 88.335,11.898 89.091 C 6.277 90.963,5.156 93.943,8.036 99.359 C 8.870 100.928,8.894 100.868,6.891 102.213 C 4.300 103.954,3.344 105.039,2.969 106.665 C 2.776 107.500,3.021 109.223,3.362 109.434 C 3.438 109.481,3.500 109.632,3.500 109.769 C 3.500 110.043,5.069 112.470,5.741 113.234 C 6.280 113.847,6.277 113.871,5.625 114.153 C 0.799 116.245,-0.233 119.928,2.816 124.183 C 4.555 126.612,4.547 126.937,2.690 128.874 C -0.856 132.575,-0.936 134.069,2.234 137.416 C 2.928 138.150,3.565 138.947,3.649 139.189 C 3.815 139.664,3.826 139.640,2.540 141.474 C 2.150 142.031,1.751 142.694,1.654 142.949 C 1.558 143.203,1.380 143.638,1.260 143.914 C 0.419 145.850,0.357 147.857,1.000 152.250 C 1.224 153.779,1.450 155.673,1.667 157.833 C 2.121 162.374,4.091 164.873,7.947 165.799 L 9.143 166.086 8.223 167.075 C 3.042 172.642,4.200 177.008,11.448 179.234 C 11.924 179.380,12.438 179.500,12.592 179.500 C 12.871 179.500,12.706 179.890,12.135 180.579 C 10.357 182.723,9.377 186.190,10.006 188.105 C 10.591 189.883,13.805 191.762,17.718 192.612 C 18.344 192.748,18.349 192.755,18.044 193.083 C 15.488 195.833,15.192 197.763,16.821 201.072 C 17.455 202.361,18.136 203.829,18.332 204.333 C 18.668 205.193,19.976 207.751,20.847 209.250 C 22.418 211.954,24.820 214.118,27.750 215.467 C 28.392 215.762,29.029 216.067,29.167 216.144 C 29.355 216.250,29.442 216.750,29.522 218.184 C 29.787 222.986,32.000 224.840,37.215 224.630 C 38.726 224.569,38.999 224.596,38.922 224.796 C 37.682 228.028,38.221 230.521,40.730 233.156 C 46.637 239.357,47.698 240.258,50.750 241.659 C 54.621 243.437,57.250 245.303,59.617 247.949 C 60.967 249.460,62.599 251.046,63.364 251.593 C 63.668 251.810,63.992 252.050,64.083 252.126 C 65.017 252.898,67.188 254.129,68.417 254.583 C 68.875 254.752,69.325 254.939,69.417 254.999 C 69.508 255.058,69.921 255.204,70.333 255.323 C 70.746 255.441,71.271 255.597,71.500 255.668 C 71.729 255.740,72.367 255.887,72.917 255.994 C 76.415 256.681,80.585 258.712,83.366 261.083 C 87.049 264.225,91.892 265.828,97.718 265.832 C 98.709 265.833,99.871 265.913,100.301 266.010 C 102.143 266.427,102.637 266.555,103.583 266.863 C 104.133 267.042,104.733 267.250,104.917 267.326 C 105.995 267.769,107.568 268.458,108.583 268.932 C 109.589 269.402,110.620 269.772,112.917 270.490 C 115.260 271.222,118.245 271.277,123.213 270.680 C 126.225 270.318,130.155 270.461,131.917 270.997 C 132.742 271.248,135.023 271.810,135.967 271.994 C 137.069 272.209,139.599 272.217,141.202 272.009 C 141.870 271.923,143.167 271.775,144.083 271.681 C 148.910 271.187,149.040 271.165,150.093 270.662 C 151.536 269.973,153.282 267.897,153.346 266.793 C 153.430 265.331,154.349 265.279,155.704 266.659 C 160.202 271.238,164.302 270.543,166.984 264.748 C 167.832 262.916,167.866 262.856,168.122 262.758 C 168.270 262.702,168.744 263.030,169.340 263.603 C 172.074 266.229,175.895 266.820,177.977 264.939 C 178.333 264.617,179.500 262.939,179.500 262.748 C 179.500 262.611,180.233 260.947,180.666 260.101 C 181.246 258.967,181.477 258.855,182.453 259.233 C 186.744 260.893,188.940 261.240,190.543 260.513 C 190.932 260.337,191.813 259.953,192.500 259.661 C 193.188 259.369,194.012 259.018,194.333 258.881 C 194.654 258.745,195.067 258.573,195.250 258.500 C 198.479 257.212,200.802 255.719,203.245 253.359 C 206.086 250.616,210.004 248.333,211.872 248.333 C 213.159 248.333,214.131 246.811,214.479 244.250 C 214.906 241.115,215.353 240.647,217.601 240.981 C 220.306 241.384,222.123 241.132,223.083 240.220 C 223.267 240.046,224.242 239.235,225.250 238.418 C 226.258 237.601,227.121 236.891,227.167 236.841 C 227.213 236.791,227.625 236.453,228.083 236.090 C 229.209 235.199,231.688 232.720,232.174 232.000 C 232.390 231.679,232.612 231.379,232.667 231.333 C 232.772 231.245,233.519 229.992,234.079 228.964 C 235.301 226.719,238.302 223.540,240.669 221.981 C 242.216 220.962,244.238 219.092,245.417 217.591 C 245.692 217.240,245.994 216.870,246.089 216.769 C 247.028 215.758,249.505 210.912,249.499 210.096 C 249.498 209.997,249.010 209.658,248.415 209.342 L 247.333 208.767 246.625 209.132 C 246.235 209.332,245.408 209.795,244.785 210.160 C 241.744 211.945,238.420 211.703,235.774 209.506 C 234.801 208.698,234.416 208.671,233.565 209.350 C 230.620 211.696,226.948 211.901,223.956 209.887 C 222.679 209.027,222.196 208.998,221.039 209.712 C 219.205 210.843,219.087 210.855,210.555 210.800 C 201.986 210.744,202.167 210.768,199.959 209.405 C 199.393 209.056,198.915 208.865,198.792 208.939 C 198.677 209.008,198.214 209.356,197.762 209.711 C 196.208 210.933,194.719 211.495,193.032 211.498 C 192.001 211.500,191.476 211.411,189.370 210.879 L 188.323 210.614 186.787 211.218 C 182.751 212.802,179.910 213.089,173.333 212.579 C 167.237 212.106,166.537 211.910,165.050 210.266 L 164.250 209.383 163.250 210.079 C 159.778 212.497,155.232 212.111,152.346 209.153 L 151.400 208.183 150.908 208.517 C 146.898 211.241,143.329 210.964,139.804 207.654 C 138.771 206.684,138.891 206.702,138.186 207.410 C 136.820 208.783,134.844 209.445,131.417 209.678 C 130.133 209.765,128.183 209.960,127.083 210.111 C 125.577 210.318,123.623 210.393,119.167 210.413 C 114.297 210.435,112.985 210.491,111.750 210.731 C 106.703 211.712,102.268 211.724,97.494 210.769 C 94.387 210.147,90.158 209.520,87.333 209.261 C 82.685 208.836,78.235 206.185,76.537 202.827 C 73.658 197.135,77.093 189.689,82.606 189.669 C 83.091 189.667,83.172 189.578,83.707 188.458 C 85.688 184.316,88.965 182.253,92.254 183.078 C 94.403 183.617,96.131 183.084,97.917 181.331 C 100.543 178.752,104.321 178.727,108.183 181.262 C 108.614 181.545,108.620 181.543,109.302 180.803 C 110.933 179.034,112.467 178.577,116.687 178.605 C 121.795 178.638,126.068 179.370,129.167 180.744 C 131.713 181.872,132.119 182.037,133.750 182.605 C 139.252 184.522,143.539 185.079,146.401 184.250 C 147.191 184.021,147.900 183.833,147.976 183.833 C 148.051 183.833,148.430 184.519,148.818 185.358 L 149.522 186.883 150.314 185.650 C 151.523 183.767,153.273 181.671,155.716 179.179 C 158.262 176.580,159.585 175.025,162.033 171.750 C 165.918 166.554,169.487 163.926,175.250 162.014 C 185.824 158.505,193.553 164.441,193.950 176.375 C 194.004 178.002,194.101 179.333,194.166 179.333 C 194.333 179.333,197.322 177.954,198.917 177.142 C 200.471 176.350,203.256 174.562,204.333 173.666 C 206.204 172.108,211.562 168.862,215.267 167.042 L 217.521 165.934 219.552 165.866 C 222.175 165.777,222.466 165.626,223.661 163.728 C 224.858 161.827,225.432 161.373,227.526 160.674 C 229.742 159.933,232.962 158.307,234.710 157.045 C 239.768 153.394,246.825 150.571,250.581 150.696 L 252.589 150.763 254.231 151.648 L 255.872 152.533 257.531 152.329 C 260.610 151.952,262.582 152.521,264.264 154.272 C 266.470 156.568,267.203 159.660,266.124 162.116 C 265.609 163.287,265.628 163.407,266.521 164.613 C 266.872 165.088,267.319 165.782,267.513 166.155 L 267.867 166.832 268.359 166.482 L 268.851 166.131 268.740 162.274 C 268.647 159.060,268.673 158.182,268.900 157.010 C 269.361 154.623,269.839 152.732,270.280 151.549 C 271.813 147.434,271.936 146.069,271.681 136.000 C 271.676 135.771,271.715 133.258,271.769 130.417 C 271.883 124.446,271.723 122.981,270.669 120.333 C 269.022 116.194,268.658 114.089,268.702 108.968 C 268.739 104.613,268.841 105.211,267.200 100.167 C 266.648 98.471,266.076 96.671,265.929 96.167 C 265.014 93.038,262.450 90.870,259.174 90.456 L 257.716 90.272 258.277 89.511 C 259.073 88.431,259.055 88.457,259.363 87.906 C 261.932 83.310,261.155 79.640,257.374 78.507 C 253.716 77.411,252.944 76.284,253.929 73.474 C 254.798 70.995,254.887 70.506,254.651 69.520 C 254.237 67.792,252.307 66.289,249.667 65.641 C 248.285 65.301,246.536 65.000,245.944 65.000 C 245.593 65.000,245.331 64.943,245.361 64.873 C 245.392 64.803,245.631 64.297,245.892 63.748 C 247.120 61.174,247.355 59.025,246.586 57.417 C 246.312 56.843,243.601 52.736,243.341 52.500 C 243.290 52.454,243.026 52.079,242.753 51.667 C 241.463 49.717,239.248 47.241,237.881 46.222 C 237.534 45.963,237.213 45.705,237.167 45.648 C 237.121 45.591,236.645 45.265,236.109 44.923 C 235.033 44.238,234.842 44.090,233.620 43.000 C 232.107 41.650,231.587 41.100,230.620 39.833 C 230.095 39.146,229.608 38.508,229.536 38.417 C 229.465 38.325,229.191 37.875,228.926 37.417 C 228.662 36.958,228.398 36.546,228.340 36.500 C 228.282 36.454,228.051 36.154,227.828 35.833 C 225.597 32.624,221.609 29.575,217.583 28.000 C 215.400 27.146,213.023 25.915,212.111 25.167 C 210.768 24.066,209.978 23.299,208.370 21.536 C 206.741 19.751,205.716 19.050,202.000 17.183 C 199.339 15.846,198.174 15.210,198.000 15.000 C 197.881 14.856,196.875 14.402,196.000 14.099 C 195.117 13.792,192.183 13.738,191.317 14.013 C 190.256 14.348,188.725 15.168,188.070 15.751 C 187.711 16.071,187.405 16.277,187.390 16.208 C 185.539 7.491,181.398 5.649,175.215 10.792 L 174.347 11.514 174.079 10.549 C 172.104 3.433,166.713 1.837,161.750 6.899 L 160.583 8.089 160.095 6.586 C 158.990 3.185,158.252 2.475,155.250 1.928 C 153.929 1.686,152.191 1.302,150.333 0.840 C 150.012 0.761,149.225 0.615,148.583 0.517 C 147.942 0.419,146.923 0.262,146.320 0.169 C 144.886 -0.052,142.873 -0.018,141.417 0.253 " stroke="none" fill="#ec442c" fill-rule="evenodd"></path><path id="path2" d="M97.573 181.708 L 97.083 182.250 97.625 181.760 C 97.923 181.491,98.167 181.248,98.167 181.219 C 98.167 181.090,98.029 181.203,97.573 181.708 M85.906 185.208 L 85.417 185.750 85.958 185.260 C 86.256 184.991,86.500 184.748,86.500 184.719 C 86.500 184.590,86.362 184.703,85.906 185.208 M82.125 189.784 C 82.331 189.824,82.669 189.824,82.875 189.784 C 83.081 189.745,82.912 189.712,82.500 189.712 C 82.087 189.712,81.919 189.745,82.125 189.784 M139.167 207.052 C 139.167 207.081,139.410 207.325,139.708 207.594 L 140.250 208.083 139.760 207.542 C 139.304 207.037,139.167 206.923,139.167 207.052 M116.714 210.290 C 117.245 210.323,118.070 210.323,118.548 210.289 C 119.026 210.256,118.592 210.229,117.583 210.229 C 116.575 210.229,116.184 210.257,116.714 210.290 M228.127 211.285 C 228.334 211.324,228.634 211.323,228.794 211.281 C 228.953 211.239,228.783 211.207,228.417 211.209 C 228.050 211.211,227.920 211.245,228.127 211.285 M176.042 212.786 C 176.294 212.824,176.706 212.824,176.958 212.786 C 177.210 212.748,177.004 212.717,176.500 212.717 C 175.996 212.717,175.790 212.748,176.042 212.786 M179.044 212.786 C 179.297 212.825,179.672 212.824,179.877 212.784 C 180.082 212.744,179.875 212.713,179.417 212.714 C 178.958 212.716,178.791 212.748,179.044 212.786 " stroke="none" fill="#f48d79" fill-rule="evenodd"></path><path id="path3" d="M258.960 152.285 C 259.168 152.324,259.468 152.323,259.627 152.281 C 259.786 152.239,259.617 152.207,259.250 152.209 C 258.883 152.211,258.753 152.245,258.960 152.285 M266.545 159.667 C 266.545 160.079,266.578 160.248,266.618 160.042 C 266.657 159.835,266.657 159.498,266.618 159.292 C 266.578 159.085,266.545 159.254,266.545 159.667 M189.000 164.052 C 189.000 164.081,189.244 164.325,189.542 164.594 L 190.083 165.083 189.594 164.542 C 189.138 164.037,189.000 163.923,189.000 164.052 M219.625 165.954 C 219.923 165.991,220.410 165.991,220.708 165.954 C 221.006 165.917,220.762 165.887,220.167 165.887 C 219.571 165.887,219.327 165.917,219.625 165.954 M142.958 184.787 C 143.256 184.824,143.744 184.824,144.042 184.787 C 144.340 184.750,144.096 184.720,143.500 184.720 C 142.904 184.720,142.660 184.750,142.958 184.787 M77.833 204.719 C 77.833 204.748,78.077 204.991,78.375 205.260 L 78.917 205.750 78.427 205.208 C 77.971 204.703,77.833 204.590,77.833 204.719 M121.788 210.454 C 122.084 210.490,122.609 210.491,122.955 210.455 C 123.300 210.419,123.058 210.389,122.417 210.388 C 121.775 210.387,121.492 210.417,121.788 210.454 M207.375 210.791 C 209.369 210.818,212.631 210.818,214.625 210.791 C 216.619 210.765,214.987 210.743,211.000 210.743 C 207.012 210.743,205.381 210.765,207.375 210.791 M103.880 211.456 C 104.318 211.490,104.993 211.490,105.380 211.455 C 105.767 211.420,105.408 211.392,104.583 211.392 C 103.758 211.393,103.442 211.422,103.880 211.456 M192.628 211.454 C 192.928 211.491,193.378 211.490,193.628 211.452 C 193.878 211.414,193.633 211.384,193.083 211.385 C 192.533 211.386,192.328 211.417,192.628 211.454 " stroke="none" fill="#f4ac9e" fill-rule="evenodd"></path><path id="path4" d="M177.625 212.784 C 177.831 212.824,178.169 212.824,178.375 212.784 C 178.581 212.745,178.412 212.712,178.000 212.712 C 177.588 212.712,177.419 212.745,177.625 212.784 " stroke="none" fill="#f4a494" fill-rule="evenodd"></path></g></svg>